<!DOCTYPE svg PUBLIC "-//W3C//DTD SVG 1.1//EN" "http://www.w3.org/Graphics/SVG/1.1/DTD/svg11.dtd">
<!-- Uploaded to: SVG Repo, www.svgrepo.com, Transformed by: SVG Repo Mixer Tools -->
<svg height="800px" width="800px" version="1.1" id="Layer_1" xmlns="http://www.w3.org/2000/svg" xmlns:xlink="http://www.w3.org/1999/xlink" viewBox="0 0 503.256 503.256" xml:space="preserve" fill="#000000">
<g id="SVGRepo_bgCarrier" stroke-width="0"/>
<g id="SVGRepo_tracerCarrier" stroke-linecap="round" stroke-linejoin="round"/>
<g id="SVGRepo_iconCarrier"> <g transform="translate(0 1)"> <path style="fill:#FFDD09;" d="M341.663,493.428H165.111c-37.076,0-67.09-37.959-63.559-82.097L116.559,203 c3.531-45.021,36.193-80.331,75.034-80.331h120.055c38.841,0,71.503,34.428,75.034,79.448L401.69,413.98 C404.338,457.235,378.738,493.428,341.663,493.428"/> <path style="fill:#FFFFFF;" d="M101.552,411.331L116.559,203c3.531-45.021,36.193-80.331,75.034-80.331h-10.593 c-45.903,0-83.862,34.428-88.276,80.331L75.07,411.331c-4.414,44.138,30.897,82.097,75.034,82.097h15.007 C127.152,493.428,98.021,455.469,101.552,411.331"/> <path style="fill:#FD9808;" d="M428.173,413.98l-17.655-211.862c-4.414-45.021-43.255-79.448-88.276-79.448h-10.593 c38.841,0,71.503,34.428,75.034,79.448L401.69,413.98c2.648,43.255-22.952,79.448-60.028,79.448h15.89 C400.807,493.428,430.821,457.235,428.173,413.98"/> <g> <path style="fill:#FFDD09;" d="M295.759,122.669h-88.276v-8.828c0-24.717,19.421-44.138,44.138-44.138 s44.138,19.421,44.138,44.138V122.669z"/> <path style="fill:#FFDD09;" d="M335.483,123.552c6.179,0.883,11.476,2.648,16.772,4.414l14.124,3.531 c0.883-7.945-2.648-79.448,26.483-88.276l35.31-8.828l-35.31-26.483c-69.738-2.648-61.793,114.759-61.793,114.759L335.483,123.552 z"/> <path style="fill:#FFDD09;" d="M136.863,131.497l14.124-3.531c5.297-1.766,10.593-3.531,16.772-4.414l4.414-0.883 c0,0,7.945-117.407-61.793-114.759L75.07,34.394l35.31,8.828C139.511,52.049,135.98,123.552,136.863,131.497"/> </g> <path style="fill:#FCC309;" d="M251.621,493.428c63.559,0,114.759-51.2,114.759-114.759V246.256 c0-38.841-31.779-70.621-70.621-70.621h-88.276c-38.841,0-70.621,31.779-70.621,70.621v132.414 C136.863,442.228,188.063,493.428,251.621,493.428"/> <path style="fill:#54C9FD;" d="M269.276,316.876h-61.793c-9.71,0-17.655-7.945-17.655-17.655v-35.31 c0-9.71,7.945-17.655,17.655-17.655h61.793c9.71,0,17.655,7.945,17.655,17.655v35.31 C286.932,308.931,278.987,316.876,269.276,316.876"/> <path style="fill:#33A9F8;" d="M295.759,246.256h-26.483c9.71,0,17.655,7.945,17.655,17.655v35.31 c0,9.71-7.945,17.655-17.655,17.655h26.483c9.71,0,17.655-7.945,17.655-17.655v-35.31 C313.414,254.2,305.47,246.256,295.759,246.256"/> <path d="M357.552,502.256H150.104c-23.834,0-45.903-9.71-61.793-27.366s-23.834-40.607-21.186-64.441l16.772-208.331 c4.414-50.317,46.786-88.276,97.103-88.276h141.241c50.317,0,91.807,37.076,97.103,87.393l17.655,211.862 c1.766,24.717-6.179,47.669-21.186,64.441C400.807,493.428,379.621,502.256,357.552,502.256z M181.001,131.497 c-40.607,0-75.917,31.779-79.448,71.503L83.897,412.214c-1.766,18.538,4.414,37.076,17.655,50.317 c12.359,14.124,30.014,22.069,48.552,22.069h207.448c17.655,0,33.545-7.062,45.021-18.538c12.359-13.241,18.538-30.897,16.772-51.2 L401.69,203c-4.414-40.607-37.959-71.503-79.448-71.503L181.001,131.497L181.001,131.497z"/> <path d="M295.759,131.497h-88.276c-5.297,0-8.828-3.531-8.828-8.828v-8.828c0-29.131,23.834-52.966,52.966-52.966 s52.965,23.834,52.965,52.966v8.828C304.587,127.966,301.056,131.497,295.759,131.497z M216.311,113.842h70.621 c0-19.421-15.89-35.31-35.31-35.31S216.311,94.421,216.311,113.842z"/> <path d="M295.759,325.704h-88.276c-15.007,0-26.483-11.476-26.483-26.483v-35.31c0-15.007,11.476-26.483,26.483-26.483h88.276 c15.007,0,26.483,11.476,26.483,26.483v35.31C322.242,314.228,310.766,325.704,295.759,325.704z M207.483,255.083 c-5.297,0-8.828,3.531-8.828,8.828v35.31c0,5.297,3.531,8.828,8.828,8.828h88.276c5.297,0,8.828-3.531,8.828-8.828v-35.31 c0-5.297-3.531-8.828-8.828-8.828H207.483z"/> <path d="M366.38,140.325c-0.883,0-1.766,0-1.766,0l-14.124-3.531h-0.883c-5.297-1.766-9.71-2.648-15.007-3.531h-0.883l-4.414-1.766 c-3.531-0.883-6.179-4.414-7.062-7.945c0-2.648-4.414-73.269,27.366-106.814C361.083,4.38,376.09-0.917,392.863-0.034 c1.766,0,3.531,0.883,5.297,1.766l35.31,26.483c2.648,1.766,4.414,5.297,3.531,8.828c-0.883,3.531-3.531,6.179-6.179,7.062 l-35.31,8.828c-7.945,2.648-19.421,17.655-19.421,73.269c0,3.531,0,6.179,0,7.062c0,2.648-1.766,5.297-3.531,6.179 C369.911,139.442,368.145,140.325,366.38,140.325z M354.904,119.138l2.648,0.883c0.883-36.193,6.179-76.8,32.662-85.628 l17.655-4.414l-17.655-13.241c-11.476,0-20.303,4.414-27.365,11.476c-22.069,22.069-22.952,69.738-22.952,87.393 C345.194,116.49,349.607,118.256,354.904,119.138z"/> <path d="M136.863,140.325c-1.766,0-3.531-0.883-5.297-1.766c-1.766-0.883-3.531-3.531-3.531-6.179c0-0.883,0-3.531,0-7.062 c-0.883-55.614-11.476-70.621-20.303-73.269l-34.428-8.828c-3.531-0.883-6.179-3.531-7.062-7.062 c-0.883-3.531,0.883-7.062,3.531-8.828l35.31-26.483c1.766-0.883,3.531-1.766,5.297-1.766c17.655-0.883,31.779,5.297,43.255,16.772 c31.779,33.545,27.366,104.166,27.366,107.697c0,3.531-2.648,7.062-7.062,7.945l-4.414,0.883 c-6.179,0.883-11.476,2.648-15.89,3.531l-15.007,4.414C138.628,140.325,137.745,140.325,136.863,140.325z M95.373,29.98 l17.655,4.414c26.483,8.828,31.779,49.434,32.662,85.628l3.531-0.883c4.414-1.766,9.71-2.648,15.007-3.531 c0-17.655-0.883-64.441-22.952-87.393c-7.945-7.062-16.772-11.476-28.248-11.476L95.373,29.98z"/> <path d="M251.621,502.256c-67.972,0-123.586-55.614-123.586-123.586V246.256c0-44.138,35.31-79.448,79.448-79.448h88.276 c44.138,0,79.448,35.31,79.448,79.448v132.414C375.207,446.642,319.594,502.256,251.621,502.256z M207.483,184.463 c-34.428,0-61.793,27.366-61.793,61.793v132.414c0,58.262,47.669,105.931,105.931,105.931s105.931-47.669,105.931-105.931V246.256 c0-34.428-27.366-61.793-61.793-61.793H207.483z"/> </g> </g>
</svg>